<?xml version="1.0" encoding="UTF-8"?>
<svg data-provenance="exact_owner_svg" xmlns="http://www.w3.org/2000/svg"
     version="1.1"
     width="80.358mm"
     height="76.2mm"
     viewBox="0 0 889 843"
     data-component-type="aa-battery-holder"
     data-component-id="aa_holder_4x_sketch_exact_v6">
  <title>AA holder 4x — normalized full-size battery SVG v6</title>
  <desc>Pure SVG. All battery cells share one normalized full visual size; 2x and 3x no longer have shortened cells.</desc>
  <metadata>{"id": "aa_holder_4x_sketch_exact_v6", "type": "aa-battery-holder", "variant": "4x", "style": "normalized linear sketch style", "fix": "All variants use identical battery visual size; fixes 2x and 3x short batteries.", "layout": {"rows": 1, "columns": 4}, "sourcePngSizePx": {"width": 889, "height": 843}, "displayMm": {"width": 80.358, "height": 76.2}, "nominalVoltageAlkaline": 6.0, "chemistryProfiles": {"alkaline": {"cellVoltage": 1.5, "packVoltage": 6.0}, "nimh": {"cellVoltage": 1.2, "packVoltage": 4.8}}, "aaReferenceMm": {"diameter": 14.5, "length": 50.5}, "visualBatteryPx": {"widthA": 191, "widthB": 190, "height": 697, "topA": 88, "topB": 82}, "snapPoints": {"BAT-": {"xMm": 35.099, "yMm": 6.05}, "BAT+": {"xMm": 45.259, "yMm": 6.05}, "spacingMm": 10.16}, "containsRaster": false, "seriesConnection": ["cell1+ -> cell2-", "cell2+ -> cell3-", "cell3+ -> cell4-"]}</metadata>

  <defs>
    <linearGradient id="caseGrad" x1="0" y1="0" x2="0" y2="1">
      <stop offset="0" stop-color="#343536"/>
      <stop offset="1" stop-color="#2b2c2d"/>
    </linearGradient>
    <linearGradient id="innerGrad" x1="0" y1="0" x2="0" y2="1">
      <stop offset="0" stop-color="#181a1b"/>
      <stop offset="1" stop-color="#212324"/>
    </linearGradient>
    <linearGradient id="metalHorizontal" x1="0" y1="0" x2="1" y2="0">
      <stop offset="0" stop-color="#9fa4a4"/>
      <stop offset="0.25" stop-color="#edf1f1"/>
      <stop offset="0.55" stop-color="#b7bcbc"/>
      <stop offset="0.86" stop-color="#e5e9e9"/>
      <stop offset="1" stop-color="#868b8b"/>
    </linearGradient>
  </defs>

  <g id="snap-points" style="display:none">
    <circle id="BAT_MINUS" cx="392.5" cy="74" r="5.5" data-terminal="BAT-" data-x-mm="35.099" data-y-mm="6.05"/>
    <circle id="BAT_PLUS" cx="497.5" cy="74" r="5.5" data-terminal="BAT+" data-x-mm="45.259" data-y-mm="6.05"/>
  </g>

  <g id="top-posts">
    <rect x="417.5" y="21" width="18" height="29" rx="3.5" fill="#191919"/>
    <rect x="422.8" y="10" width="7.4" height="12.5" rx="2.6" fill="#666666"/>
    <rect x="453.5" y="21" width="18" height="29" rx="3.5" fill="#bd1111"/>
    <rect x="458.8" y="10" width="7.4" height="12.5" rx="2.6" fill="#666666"/>
  </g>
  <g id="case">
    <rect x="25" y="45" width="839" height="777" rx="6" fill="url(#caseGrad)"/>
    <rect x="39" y="72" width="816" height="722" rx="8" fill="url(#innerGrad)"/>
    <rect x="32" y="49" width="825" height="3" rx="1.5" fill="#424445" opacity="0.35"/>
  </g>
  <g id="metal-contacts">
    <rect x="108" y="73" width="75" height="16" rx="5.333" fill="url(#metalHorizontal)" /><rect x="110.25" y="78.28" width="70.5" height="2.24" rx="0.5" fill="#f4f7f7" opacity="0.45"/><rect x="77" y="787" width="138" height="7" rx="2.333" fill="url(#metalHorizontal)" /><rect x="81.14" y="789.31" width="129.72" height="1" rx="0.5" fill="#f4f7f7" opacity="0.45"/><rect x="279" y="73" width="146" height="8" rx="2.667" fill="url(#metalHorizontal)" /><rect x="283.38" y="75.64" width="137.24" height="1.12" rx="0.5" fill="#f4f7f7" opacity="0.45"/><rect x="310" y="780" width="77" height="16" rx="5.333" fill="url(#metalHorizontal)" /><rect x="312.31" y="785.28" width="72.38" height="2.24" rx="0.5" fill="#f4f7f7" opacity="0.45"/><rect x="512" y="73" width="75" height="16" rx="5.333" fill="url(#metalHorizontal)" /><rect x="514.25" y="78.28" width="70.5" height="2.24" rx="0.5" fill="#f4f7f7" opacity="0.45"/><rect x="481" y="787" width="138" height="7" rx="2.333" fill="url(#metalHorizontal)" /><rect x="485.14" y="789.31" width="129.72" height="1" rx="0.5" fill="#f4f7f7" opacity="0.45"/><rect x="683" y="73" width="146" height="8" rx="2.667" fill="url(#metalHorizontal)" /><rect x="687.38" y="75.64" width="137.24" height="1.12" rx="0.5" fill="#f4f7f7" opacity="0.45"/><rect x="714" y="780" width="77" height="16" rx="5.333" fill="url(#metalHorizontal)" /><rect x="716.31" y="785.28" width="72.38" height="2.24" rx="0.5" fill="#f4f7f7" opacity="0.45"/>
  </g>
  <g id="batteries">
    
    <g id="battery-1" data-cap="top" data-normalized-full-size="true">
      <clipPath id="cellclip-1">
        <rect x="51" y="88" width="191" height="697" rx="6.685"/>
      </clipPath>
      <g clip-path="url(#cellclip-1)"><rect x="51" y="88" width="191" height="203.524" rx="0" fill="#4cc4c7" /><rect x="51" y="291.524" width="191" height="493.476" rx="0" fill="#2b7d82" /></g>
      <rect x="51" y="88" width="191" height="697" rx="6.685" fill="none" stroke="#2a777b" stroke-width="0.9"/>
      <text transform="translate(146.5 436.5) rotate(90)"
            text-anchor="middle" dominant-baseline="middle"
            font-family="Arial, Helvetica, sans-serif"
            font-size="53.48"
            font-weight="400"
            fill="#e9f3f3">AA 1.5V</text>
    </g>
    <g id="battery-2" data-cap="bottom" data-normalized-full-size="true">
      <clipPath id="cellclip-2">
        <rect x="253" y="82" width="190" height="697" rx="6.65"/>
      </clipPath>
      <g clip-path="url(#cellclip-2)"><rect x="253" y="82" width="190" height="493.476" rx="0" fill="#2b7d82" /><rect x="253" y="575.476" width="190" height="203.524" rx="0" fill="#4cc4c7" /></g>
      <rect x="253" y="82" width="190" height="697" rx="6.65" fill="none" stroke="#2a777b" stroke-width="0.9"/>
      <text transform="translate(348 430.5) rotate(-90)"
            text-anchor="middle" dominant-baseline="middle"
            font-family="Arial, Helvetica, sans-serif"
            font-size="53.2"
            font-weight="400"
            fill="#e9f3f3">AA 1.5V</text>
    </g>
    <g id="battery-3" data-cap="top" data-normalized-full-size="true">
      <clipPath id="cellclip-3">
        <rect x="455" y="88" width="191" height="697" rx="6.685"/>
      </clipPath>
      <g clip-path="url(#cellclip-3)"><rect x="455" y="88" width="191" height="203.524" rx="0" fill="#4cc4c7" /><rect x="455" y="291.524" width="191" height="493.476" rx="0" fill="#2b7d82" /></g>
      <rect x="455" y="88" width="191" height="697" rx="6.685" fill="none" stroke="#2a777b" stroke-width="0.9"/>
      <text transform="translate(550.5 436.5) rotate(90)"
            text-anchor="middle" dominant-baseline="middle"
            font-family="Arial, Helvetica, sans-serif"
            font-size="53.48"
            font-weight="400"
            fill="#e9f3f3">AA 1.5V</text>
    </g>
    <g id="battery-4" data-cap="bottom" data-normalized-full-size="true">
      <clipPath id="cellclip-4">
        <rect x="657" y="82" width="190" height="697" rx="6.65"/>
      </clipPath>
      <g clip-path="url(#cellclip-4)"><rect x="657" y="82" width="190" height="493.476" rx="0" fill="#2b7d82" /><rect x="657" y="575.476" width="190" height="203.524" rx="0" fill="#4cc4c7" /></g>
      <rect x="657" y="82" width="190" height="697" rx="6.65" fill="none" stroke="#2a777b" stroke-width="0.9"/>
      <text transform="translate(752 430.5) rotate(-90)"
            text-anchor="middle" dominant-baseline="middle"
            font-family="Arial, Helvetica, sans-serif"
            font-size="53.2"
            font-weight="400"
            fill="#e9f3f3">AA 1.5V</text>
    </g>
  </g>

  <g id="side-cutouts">
    <path d="M 39 372
             C 75 396, 75 668, 39 692
             L 39 372 Z" fill="#2b2c2d"/>
    <path d="M 855 372
             C 819 396, 819 668, 855 692
             L 855 372 Z" fill="#2b2c2d"/>
  </g>
  <g id="polarity">
    
    <g id="badge-minus">
      <circle cx="392.5" cy="74" r="22" fill="#353738" stroke="#626668" stroke-width="3"/>
      <rect x="381.5" y="72.13" width="22" height="3.74" rx="1.76" fill="#eeeeee"/>
    </g>
    
    <g id="badge-plus">
      <circle cx="497.5" cy="74" r="22" fill="#353738" stroke="#626668" stroke-width="3"/>
      <rect x="486.06" y="72.13" width="22.88" height="3.74" rx="1.76" fill="#eeeeee"/>
      <rect x="495.63" y="62.56" width="3.74" height="22.88" rx="1.76" fill="#eeeeee"/>
    </g>
  </g>

<g id="production-leads" data-derived-from="owner-holder-terminals"><path d="M 388.3 74 C 388.3 48 388.3 24 388.3 0" fill="none" stroke="#25282a" stroke-width="6" stroke-linecap="round"/><circle id="pin-BAT-" data-pin-id="BAT-" cx="388.3" cy="0" r="0.8" fill="none"/><path d="M 500.7 74 C 500.7 48 500.7 24 500.7 0" fill="none" stroke="#bd1111" stroke-width="6" stroke-linecap="round"/><circle id="pin-BAT+" data-pin-id="BAT+" cx="500.7" cy="0" r="0.8" fill="none"/></g>
</svg>