<?xml version="1.0" encoding="UTF-8"?>
<svg xmlns="http://www.w3.org/2000/svg" width="474" height="247" viewBox="0 0 474 247">
  <path d="M214 170 A2 2 0 0 1 216 168 H229 A2 2 0 0 1 231 170 V176 A2 2 0 0 1 229 178 H216 A2 2 0 0 1 214 176 Z" fill="#242424"/>
  <path d="M215 171.5 A1.5 1.5 0 0 1 216.5 170 H228.5 A1.5 1.5 0 0 1 230 171.5 V176.5 A1.5 1.5 0 0 1 228.5 178 H216.5 A1.5 1.5 0 0 1 215 176.5 Z" fill="#333333"/>
  <path d="M217 178.5 A1.5 1.5 0 0 1 218.5 177 H226.5 A1.5 1.5 0 0 1 228 178.5 V183.5 A1.5 1.5 0 0 1 226.5 185 H218.5 A1.5 1.5 0 0 1 217 183.5 Z" fill="#333333"/>
  <path d="M220 186.8 A1.8 1.8 0 0 1 221.8 185 H223.2 A1.8 1.8 0 0 1 225 186.8 V191.2 A1.8 1.8 0 0 1 223.2 193 H221.8 A1.8 1.8 0 0 1 220 191.2 Z" fill="#8C8C8C"/>

  <path d="M241 170 A2 2 0 0 1 243 168 H256 A2 2 0 0 1 258 170 V176 A2 2 0 0 1 256 178 H243 A2 2 0 0 1 241 176 Z" fill="#7B1414"/>
  <path d="M242 171.5 A1.5 1.5 0 0 1 243.5 170 H255.5 A1.5 1.5 0 0 1 257 171.5 V176.5 A1.5 1.5 0 0 1 255.5 178 H243.5 A1.5 1.5 0 0 1 242 176.5 Z" fill="#AF1C1C"/>
  <path d="M244 178.5 A1.5 1.5 0 0 1 245.5 177 H253.5 A1.5 1.5 0 0 1 255 178.5 V183.5 A1.5 1.5 0 0 1 253.5 185 H245.5 A1.5 1.5 0 0 1 244 183.5 Z" fill="#AF1C1C"/>
  <path d="M247 186.8 A1.8 1.8 0 0 1 248.8 185 H250.2 A1.8 1.8 0 0 1 252 186.8 V191.2 A1.8 1.8 0 0 1 250.2 193 H248.8 A1.8 1.8 0 0 1 247 191.2 Z" fill="#8C8C8C"/>

  <path d="M56 45 H416 A11 11 0 0 1 427 56 V158 A11 11 0 0 1 416 169 H56 A11 11 0 0 1 45 158 V56 A11 11 0 0 1 56 45 Z" fill="#F2AE16"/>

  <path d="M61 59 H376 A2 2 0 0 1 378 61 V153 A2 2 0 0 1 376 155 H61 A2 2 0 0 1 59 153 V61 A2 2 0 0 1 61 59 Z" fill="#4E5251"/>
  <path d="M65 64 H372 V149 H65 Z" fill="#C5CFD2"/>

  <path d="M415 72 A13 13 0 1 0 389 72 A13 13 0 1 0 415 72 Z" fill="#F2AE16" stroke="#4E5251" stroke-width="2.5"/>
  <path d="M397 78 L402 66 L407 78 M399.3 73 H404.7" fill="none" stroke="#4E5251" stroke-width="2.2" stroke-linecap="round" stroke-linejoin="round"/>

  <path d="M415 107 A13 13 0 1 0 389 107 A13 13 0 1 0 415 107 Z" fill="#4E5251"/>
  <path d="M397 101 L402 113 L407 101" fill="none" stroke="#F2AE16" stroke-width="2.4" stroke-linecap="round" stroke-linejoin="round"/>

  <path d="M415 139 A13 13 0 1 0 389 139 A13 13 0 1 0 415 139 Z" fill="#F2AE16" stroke="#4E5251" stroke-width="2.5"/>
  <path d="M398.5 145.5 V132.5 H402.8 C405.5 132.5 406.8 134.2 406.8 136.2 C406.8 138.8 404.9 140 402.6 140 H398.5 M402 140 L407 145.5" fill="none" stroke="#4E5251" stroke-width="2.1" stroke-linecap="round" stroke-linejoin="round"/>
</svg>
