<?xml version="1.0" encoding="UTF-8"?>
<svg xmlns="http://www.w3.org/2000/svg" viewBox="0 0 106 282" width="106" height="282" shape-rendering="crispEdges">
  <g fill="#D9B477">
    <rect x="28" y="82" width="56" height="3"/>
    <rect x="29" y="79" width="54" height="2"/>
    <rect x="30" y="78" width="52" height="1"/>
    <rect x="31" y="76" width="50" height="1"/>
    <rect x="32" y="75" width="48" height="1"/>
    <rect x="33" y="73" width="45" height="1"/>
    <rect x="34" y="115" width="44" height="9"/>
    <rect x="33" y="111" width="46" height="3"/>
    <rect x="32" y="108" width="48" height="3"/>
    <rect x="31" y="105" width="50" height="3"/>
    <rect x="30" y="77" width="51" height="1"/>
    <rect x="30" y="102" width="52" height="3"/>
    <rect x="29" y="98" width="54" height="4"/>
    <rect x="29" y="183" width="54" height="3"/>
    <rect x="29" y="182" width="53" height="1"/>
    <rect x="30" y="180" width="52" height="2"/>
    <rect x="31" y="177" width="50" height="2"/>
    <rect x="32" y="174" width="48" height="3"/>
    <rect x="33" y="172" width="46" height="2"/>
    <rect x="34" y="141" width="44" height="14"/>
    <rect x="37" y="70" width="38" height="1"/>
    <rect x="38" y="69" width="36" height="1"/>
    <rect x="41" y="67" width="30" height="1"/>
    <rect x="42" y="66" width="28" height="1"/>
    <rect x="44" y="65" width="24" height="1"/>
    <rect x="45" y="64" width="22" height="1"/>
    <rect x="48" y="62" width="16" height="1"/>
    <rect x="49" y="59" width="14" height="3"/>
    <rect x="50" y="55" width="12" height="4"/>
    <rect x="52" y="54" width="10" height="1"/>
    <rect x="50" y="226" width="12" height="4"/>
    <rect x="49" y="223" width="14" height="2"/>
    <rect x="48" y="222" width="16" height="1"/>
    <rect x="46" y="63" width="19" height="1"/>
    <rect x="45" y="220" width="22" height="1"/>
    <rect x="44" y="219" width="24" height="1"/>
    <rect x="42" y="218" width="28" height="1"/>
    <rect x="41" y="217" width="30" height="1"/>
    <rect x="39" y="68" width="34" height="1"/>
    <rect x="38" y="215" width="36" height="1"/>
    <rect x="37" y="214" width="38" height="1"/>
    <rect x="35" y="71" width="41" height="1"/>
    <rect x="34" y="72" width="43" height="1"/>
    <rect x="33" y="114" width="45" height="1"/>
    <rect x="32" y="74" width="47" height="1"/>
    <rect x="32" y="209" width="48" height="1"/>
    <rect x="31" y="207" width="50" height="2"/>
    <rect x="30" y="179" width="51" height="1"/>
    <rect x="30" y="206" width="52" height="1"/>
    <rect x="29" y="203" width="54" height="2"/>
    <rect x="28" y="81" width="55" height="1"/>
    <rect x="28" y="92" width="56" height="6"/>
    <rect x="33" y="210" width="46" height="1"/>
    <rect x="34" y="211" width="44" height="1"/>
    <rect x="29" y="205" width="53" height="1"/>
    <rect x="35" y="212" width="42" height="1"/>
    <rect x="36" y="213" width="40" height="1"/>
    <rect x="40" y="216" width="33" height="1"/>
    <rect x="47" y="221" width="18" height="1"/>
    <rect x="49" y="225" width="13" height="1"/>
    <rect x="50" y="230" width="10" height="1"/>
    <rect x="51" y="231" width="6" height="1"/>
  </g>
  <g fill="#8B4513">
    <rect x="28" y="187" width="55" height="1"/>
    <rect x="28" y="188" width="56" height="14"/>
  </g>
  <g fill="#8C8C8C">
    <rect x="50" y="22" width="11" height="31"/>
    <rect x="51" y="20" width="10" height="2"/>
    <rect x="52" y="19" width="8" height="1"/>
    <rect x="54" y="17" width="3" height="1"/>
    <rect x="52" y="18" width="7" height="1"/>
    <rect x="52" y="267" width="8" height="1"/>
    <rect x="51" y="265" width="10" height="2"/>
    <rect x="50" y="233" width="11" height="32"/>
    <rect x="50" y="53" width="3" height="1"/>
    <rect x="60" y="231" width="1" height="1"/>
    <rect x="50" y="232" width="1" height="1"/>
    <rect x="57" y="232" width="4" height="1"/>
    <rect x="53" y="268" width="6" height="1"/>
  </g>
  <g fill="#000000">
    <rect x="34" y="156" width="44" height="14"/>
    <rect x="33" y="170" width="45" height="1"/>
  </g>
  <g fill="#FF0000">
    <rect x="34" y="125" width="44" height="15"/>
  </g>
  <g fill="#685F2F">
    <rect x="55" y="86" width="27" height="5"/>
  </g>
  <g fill="#D6CF41">
    <rect x="28" y="86" width="14" height="5"/>
  </g>
  <g fill="#F1EDE6">
    <rect x="27" y="82" width="1" height="1"/>
    <rect x="82" y="77" width="1" height="1"/>
    <rect x="78" y="72" width="1" height="1"/>
    <rect x="78" y="121" width="1" height="4"/>
    <rect x="32" y="73" width="1" height="1"/>
    <rect x="79" y="73" width="1" height="1"/>
    <rect x="31" y="74" width="1" height="1"/>
    <rect x="80" y="74" width="1" height="1"/>
    <rect x="29" y="77" width="1" height="1"/>
    <rect x="82" y="104" width="1" height="1"/>
    <rect x="28" y="79" width="1" height="1"/>
    <rect x="83" y="79" width="1" height="1"/>
    <rect x="29" y="180" width="1" height="1"/>
    <rect x="31" y="174" width="1" height="1"/>
    <rect x="32" y="170" width="1" height="1"/>
    <rect x="35" y="70" width="1" height="1"/>
    <rect x="72" y="67" width="1" height="1"/>
    <rect x="46" y="62" width="1" height="1"/>
    <rect x="47" y="61" width="1" height="1"/>
    <rect x="62" y="54" width="1" height="2"/>
    <rect x="62" y="229" width="1" height="1"/>
    <rect x="48" y="59" width="1" height="1"/>
    <rect x="63" y="59" width="1" height="1"/>
    <rect x="47" y="223" width="1" height="1"/>
    <rect x="64" y="61" width="1" height="1"/>
    <rect x="46" y="222" width="1" height="1"/>
    <rect x="65" y="62" width="1" height="1"/>
    <rect x="68" y="64" width="1" height="1"/>
    <rect x="69" y="65" width="1" height="1"/>
    <rect x="71" y="66" width="1" height="1"/>
    <rect x="72" y="217" width="1" height="1"/>
    <rect x="75" y="69" width="1" height="1"/>
    <rect x="35" y="214" width="1" height="1"/>
    <rect x="76" y="70" width="1" height="1"/>
    <rect x="77" y="71" width="1" height="1"/>
    <rect x="78" y="141" width="1" height="15"/>
    <rect x="32" y="211" width="1" height="1"/>
    <rect x="79" y="171" width="1" height="1"/>
    <rect x="31" y="210" width="1" height="1"/>
    <rect x="80" y="174" width="1" height="1"/>
    <rect x="29" y="207" width="1" height="1"/>
    <rect x="82" y="180" width="1" height="1"/>
    <rect x="28" y="183" width="1" height="1"/>
    <rect x="83" y="183" width="1" height="1"/>
    <rect x="27" y="97" width="1" height="1"/>
    <rect x="84" y="82" width="1" height="1"/>
    <rect x="30" y="177" width="1" height="1"/>
    <rect x="81" y="177" width="1" height="1"/>
    <rect x="34" y="213" width="1" height="1"/>
  </g>
  <g fill="#EAEBEC">
    <rect x="49" y="23" width="1" height="32"/>
    <rect x="49" y="231" width="1" height="33"/>
  </g>
  <g fill="#909090">
    <rect x="61" y="23" width="1" height="30"/>
    <rect x="61" y="231" width="1" height="33"/>
  </g>
  <g fill="#AD9F4E">
    <rect x="43" y="86" width="11" height="5"/>
    <rect x="83" y="86" width="1" height="5"/>
  </g>
  <g fill="#D6AF73">
    <rect x="28" y="202" width="56" height="1"/>
  </g>
  <g fill="#BF8F56">
    <rect x="28" y="186" width="55" height="1"/>
  </g>
  <g fill="#EDE5D6">
    <rect x="33" y="72" width="1" height="1"/>
    <rect x="33" y="121" width="1" height="3"/>
    <rect x="28" y="101" width="1" height="1"/>
    <rect x="81" y="76" width="1" height="1"/>
    <rect x="33" y="141" width="1" height="15"/>
    <rect x="39" y="67" width="1" height="1"/>
    <rect x="42" y="65" width="1" height="1"/>
    <rect x="66" y="63" width="1" height="1"/>
    <rect x="63" y="60" width="1" height="1"/>
    <rect x="45" y="63" width="1" height="1"/>
    <rect x="66" y="221" width="1" height="1"/>
    <rect x="42" y="219" width="1" height="1"/>
    <rect x="39" y="217" width="1" height="1"/>
    <rect x="34" y="71" width="1" height="1"/>
    <rect x="33" y="212" width="1" height="1"/>
    <rect x="81" y="208" width="1" height="1"/>
    <rect x="84" y="95" width="1" height="2"/>
    <rect x="27" y="96" width="1" height="1"/>
    <rect x="28" y="205" width="1" height="1"/>
    <rect x="29" y="104" width="1" height="1"/>
    <rect x="30" y="107" width="1" height="1"/>
    <rect x="31" y="110" width="1" height="1"/>
    <rect x="32" y="113" width="1" height="1"/>
    <rect x="78" y="119" width="1" height="2"/>
    <rect x="83" y="184" width="1" height="1"/>
    <rect x="73" y="216" width="1" height="1"/>
    <rect x="69" y="219" width="1" height="1"/>
    <rect x="48" y="225" width="1" height="1"/>
    <rect x="62" y="228" width="1" height="1"/>
  </g>
  <g fill="#A38759">
    <rect x="33" y="171" width="46" height="1"/>
  </g>
  <g fill="#DCBC87">
    <rect x="81" y="77" width="1" height="1"/>
    <rect x="78" y="73" width="1" height="1"/>
    <rect x="32" y="111" width="1" height="1"/>
    <rect x="31" y="108" width="1" height="1"/>
    <rect x="28" y="98" width="1" height="1"/>
    <rect x="83" y="98" width="1" height="1"/>
    <rect x="82" y="102" width="1" height="1"/>
    <rect x="30" y="105" width="1" height="1"/>
    <rect x="81" y="105" width="1" height="1"/>
    <rect x="31" y="176" width="1" height="1"/>
    <rect x="32" y="173" width="1" height="1"/>
    <rect x="33" y="115" width="1" height="1"/>
    <rect x="78" y="114" width="1" height="1"/>
    <rect x="77" y="72" width="1" height="1"/>
    <rect x="76" y="71" width="1" height="1"/>
    <rect x="40" y="67" width="1" height="1"/>
    <rect x="43" y="65" width="1" height="1"/>
    <rect x="65" y="63" width="1" height="1"/>
    <rect x="48" y="61" width="1" height="1"/>
    <rect x="63" y="61" width="1" height="1"/>
    <rect x="48" y="223" width="1" height="1"/>
    <rect x="63" y="223" width="1" height="1"/>
    <rect x="65" y="221" width="1" height="1"/>
    <rect x="43" y="219" width="1" height="1"/>
    <rect x="40" y="217" width="1" height="1"/>
    <rect x="76" y="213" width="1" height="1"/>
    <rect x="77" y="212" width="1" height="1"/>
    <rect x="78" y="211" width="1" height="1"/>
    <rect x="81" y="207" width="1" height="1"/>
    <rect x="28" y="203" width="1" height="1"/>
    <rect x="83" y="203" width="1" height="1"/>
    <rect x="29" y="102" width="1" height="1"/>
    <rect x="82" y="205" width="1" height="1"/>
    <rect x="30" y="207" width="1" height="1"/>
    <rect x="31" y="209" width="1" height="1"/>
    <rect x="32" y="210" width="1" height="1"/>
    <rect x="33" y="211" width="1" height="1"/>
    <rect x="34" y="212" width="1" height="1"/>
    <rect x="35" y="213" width="1" height="1"/>
    <rect x="36" y="214" width="1" height="1"/>
    <rect x="39" y="216" width="1" height="1"/>
    <rect x="46" y="221" width="1" height="1"/>
    <rect x="47" y="222" width="1" height="1"/>
    <rect x="62" y="225" width="1" height="1"/>
  </g>
  <g fill="#DBA970">
    <rect x="34" y="124" width="44" height="1"/>
  </g>
  <g fill="#E7714B">
    <rect x="34" y="140" width="44" height="1"/>
  </g>
  <g fill="#BE9D68">
    <rect x="34" y="155" width="44" height="1"/>
  </g>
  <g fill="#E6D4B6">
    <rect x="82" y="78" width="1" height="1"/>
    <rect x="30" y="76" width="1" height="1"/>
    <rect x="32" y="112" width="1" height="1"/>
    <rect x="31" y="109" width="1" height="1"/>
    <rect x="30" y="106" width="1" height="1"/>
    <rect x="29" y="78" width="1" height="1"/>
    <rect x="28" y="80" width="1" height="1"/>
    <rect x="83" y="99" width="1" height="2"/>
    <rect x="28" y="184" width="1" height="1"/>
    <rect x="83" y="185" width="1" height="1"/>
    <rect x="82" y="103" width="1" height="1"/>
    <rect x="30" y="178" width="1" height="1"/>
    <rect x="80" y="75" width="1" height="1"/>
    <rect x="74" y="69" width="1" height="1"/>
    <rect x="38" y="68" width="1" height="1"/>
    <rect x="70" y="66" width="1" height="1"/>
    <rect x="67" y="64" width="1" height="1"/>
    <rect x="48" y="60" width="1" height="1"/>
    <rect x="48" y="224" width="1" height="1"/>
    <rect x="67" y="220" width="1" height="1"/>
    <rect x="70" y="218" width="1" height="1"/>
    <rect x="38" y="216" width="1" height="1"/>
    <rect x="74" y="215" width="1" height="1"/>
    <rect x="80" y="209" width="1" height="1"/>
    <rect x="30" y="208" width="1" height="1"/>
    <rect x="29" y="181" width="1" height="1"/>
    <rect x="82" y="206" width="1" height="1"/>
    <rect x="28" y="204" width="1" height="1"/>
    <rect x="27" y="83" width="1" height="1"/>
    <rect x="84" y="94" width="1" height="1"/>
    <rect x="83" y="204" width="1" height="1"/>
    <rect x="81" y="106" width="1" height="1"/>
    <rect x="31" y="175" width="1" height="1"/>
    <rect x="32" y="172" width="1" height="1"/>
    <rect x="79" y="112" width="1" height="1"/>
    <rect x="78" y="116" width="1" height="2"/>
    <rect x="33" y="118" width="1" height="1"/>
    <rect x="62" y="227" width="1" height="1"/>
  </g>
  <g fill="#E0C497">
    <rect x="27" y="84" width="1" height="1"/>
    <rect x="79" y="74" width="1" height="1"/>
    <rect x="28" y="99" width="1" height="1"/>
    <rect x="79" y="111" width="1" height="1"/>
    <rect x="75" y="70" width="1" height="1"/>
    <rect x="37" y="69" width="1" height="1"/>
    <rect x="71" y="67" width="1" height="1"/>
    <rect x="68" y="65" width="1" height="1"/>
    <rect x="64" y="62" width="1" height="1"/>
    <rect x="62" y="58" width="1" height="1"/>
    <rect x="62" y="226" width="1" height="1"/>
    <rect x="47" y="62" width="1" height="1"/>
    <rect x="64" y="222" width="1" height="1"/>
    <rect x="44" y="64" width="1" height="1"/>
    <rect x="68" y="219" width="1" height="1"/>
    <rect x="41" y="66" width="1" height="1"/>
    <rect x="71" y="217" width="1" height="1"/>
    <rect x="37" y="215" width="1" height="1"/>
    <rect x="36" y="70" width="1" height="1"/>
    <rect x="75" y="214" width="1" height="1"/>
    <rect x="79" y="210" width="1" height="1"/>
    <rect x="31" y="75" width="1" height="1"/>
    <rect x="83" y="81" width="1" height="1"/>
    <rect x="27" y="92" width="1" height="2"/>
    <rect x="28" y="185" width="1" height="1"/>
    <rect x="80" y="108" width="1" height="1"/>
    <rect x="78" y="115" width="1" height="1"/>
    <rect x="81" y="179" width="1" height="1"/>
    <rect x="82" y="182" width="1" height="1"/>
  </g>
  <g fill="#B59960">
    <rect x="55" y="85" width="28" height="1"/>
  </g>
  <g fill="#99854D">
    <rect x="55" y="91" width="28" height="1"/>
  </g>
  <g fill="#EADCC6">
    <rect x="80" y="109" width="1" height="1"/>
    <rect x="62" y="56" width="1" height="1"/>
    <rect x="73" y="68" width="1" height="1"/>
    <rect x="83" y="80" width="1" height="1"/>
    <rect x="84" y="83" width="1" height="1"/>
    <rect x="27" y="95" width="1" height="1"/>
    <rect x="28" y="100" width="1" height="1"/>
    <rect x="80" y="175" width="1" height="1"/>
    <rect x="78" y="118" width="1" height="1"/>
    <rect x="33" y="119" width="1" height="2"/>
    <rect x="79" y="172" width="1" height="1"/>
    <rect x="81" y="178" width="1" height="1"/>
    <rect x="82" y="181" width="1" height="1"/>
    <rect x="45" y="221" width="1" height="1"/>
    <rect x="63" y="224" width="1" height="1"/>
  </g>
  <g fill="#F39E94">
    <rect x="33" y="125" width="1" height="15"/>
  </g>
  <g fill="#F4C2BD">
    <rect x="78" y="125" width="1" height="15"/>
  </g>
  <g fill="#D6BB64">
    <rect x="28" y="85" width="14" height="1"/>
  </g>
  <g fill="#D3C055">
    <rect x="28" y="91" width="14" height="1"/>
  </g>
  <g fill="#E3CDA7">
    <rect x="84" y="84" width="1" height="1"/>
    <rect x="29" y="103" width="1" height="1"/>
    <rect x="62" y="57" width="1" height="1"/>
    <rect x="84" y="92" width="1" height="2"/>
    <rect x="27" y="94" width="1" height="1"/>
    <rect x="29" y="206" width="1" height="1"/>
    <rect x="33" y="116" width="1" height="2"/>
    <rect x="79" y="173" width="1" height="1"/>
    <rect x="80" y="176" width="1" height="1"/>
    <rect x="41" y="218" width="1" height="1"/>
    <rect x="44" y="220" width="1" height="1"/>
  </g>
  <g fill="#CEAF6D">
    <rect x="43" y="85" width="11" height="1"/>
    <rect x="83" y="85" width="1" height="1"/>
  </g>
  <g fill="#C3A962">
    <rect x="43" y="91" width="11" height="1"/>
    <rect x="83" y="91" width="1" height="1"/>
  </g>
  <g fill="#B2ACA0">
    <rect x="33" y="156" width="1" height="7"/>
    <rect x="78" y="164" width="1" height="2"/>
  </g>
  <g fill="#D3CFC9">
    <rect x="78" y="156" width="1" height="8"/>
  </g>
  <g fill="#A99B84">
    <rect x="53" y="53" width="2" height="1"/>
    <rect x="50" y="54" width="1" height="1"/>
    <rect x="58" y="231" width="1" height="1"/>
    <rect x="55" y="232" width="1" height="1"/>
  </g>
  <g fill="#B7AB4B">
    <rect x="42" y="86" width="1" height="5"/>
  </g>
  <g fill="#AB9D4D">
    <rect x="54" y="86" width="1" height="5"/>
  </g>
  <g fill="#706732">
    <rect x="82" y="86" width="1" height="5"/>
  </g>
  <g fill="#BCA57F">
    <rect x="55" y="53" width="1" height="1"/>
    <rect x="51" y="54" width="1" height="1"/>
    <rect x="57" y="231" width="1" height="1"/>
    <rect x="53" y="232" width="1" height="1"/>
  </g>
  <g fill="#C6AA7C">
    <rect x="56" y="53" width="1" height="1"/>
    <rect x="59" y="53" width="1" height="1"/>
    <rect x="60" y="230" width="1" height="1"/>
    <rect x="52" y="232" width="1" height="1"/>
  </g>
  <g fill="#CFAF7A">
    <rect x="57" y="53" width="2" height="1"/>
    <rect x="50" y="231" width="1" height="1"/>
  </g>
  <g fill="#B3A081">
    <rect x="60" y="53" width="1" height="1"/>
    <rect x="51" y="232" width="1" height="1"/>
    <rect x="54" y="232" width="1" height="1"/>
  </g>
  <g fill="#B7A753">
    <rect x="27" y="86" width="1" height="1"/>
    <rect x="27" y="89" width="1" height="2"/>
  </g>
  <g fill="#92897B">
    <rect x="33" y="164" width="1" height="1"/>
    <rect x="78" y="166" width="1" height="2"/>
  </g>
  <g fill="#DFE0E1">
    <rect x="55" y="16" width="1" height="1"/>
    <rect x="52" y="17" width="1" height="1"/>
  </g>
  <g fill="#8D8D8D">
    <rect x="57" y="17" width="1" height="1"/>
    <rect x="51" y="19" width="1" height="1"/>
  </g>
  <g fill="#929393">
    <rect x="50" y="21" width="1" height="1"/>
    <rect x="61" y="264" width="1" height="1"/>
  </g>
  <g fill="#EBECED">
    <rect x="49" y="22" width="1" height="1"/>
    <rect x="60" y="268" width="1" height="1"/>
  </g>
  <g fill="#919191">
    <rect x="61" y="22" width="1" height="1"/>
    <rect x="56" y="269" width="1" height="1"/>
  </g>
  <g fill="#E6DDCF">
    <rect x="49" y="55" width="1" height="1"/>
    <rect x="49" y="230" width="1" height="1"/>
  </g>
  <g fill="#E1CFB1">
    <rect x="49" y="56" width="1" height="2"/>
  </g>
  <g fill="#BAA860">
    <rect x="84" y="86" width="1" height="1"/>
    <rect x="84" y="89" width="1" height="1"/>
  </g>
  <g fill="#B1A44D">
    <rect x="27" y="87" width="1" height="2"/>
  </g>
  <g fill="#B9A65C">
    <rect x="84" y="87" width="1" height="2"/>
  </g>
  <g fill="#736A5B">
    <rect x="33" y="166" width="1" height="2"/>
  </g>
  <g fill="#1B170F">
    <rect x="33" y="169" width="1" height="1"/>
    <rect x="78" y="170" width="1" height="1"/>
  </g>
  <g fill="#B88C64">
    <rect x="84" y="191" width="1" height="1"/>
    <rect x="84" y="200" width="1" height="1"/>
  </g>
  <g fill="#8D4715">
    <rect x="27" y="196" width="1" height="2"/>
  </g>
  <g fill="#985827">
    <rect x="84" y="196" width="1" height="2"/>
  </g>
  <g fill="#E4D6C0">
    <rect x="49" y="228" width="1" height="2"/>
  </g>
  <g fill="#969189">
    <rect x="59" y="231" width="1" height="1"/>
    <rect x="56" y="232" width="1" height="1"/>
  </g>
  <g fill="#A6A6A6">
    <rect x="61" y="265" width="1" height="1"/>
    <rect x="59" y="268" width="1" height="1"/>
  </g>
  <g fill="#E0E1E2">
    <rect x="56" y="16" width="1" height="1"/>
  </g>
  <g fill="#ADADAD">
    <rect x="53" y="17" width="1" height="1"/>
  </g>
  <g fill="#B3B3B3">
    <rect x="58" y="17" width="1" height="1"/>
  </g>
  <g fill="#E6E7E8">
    <rect x="59" y="17" width="1" height="1"/>
  </g>
  <g fill="#D0D1D2">
    <rect x="51" y="18" width="1" height="1"/>
  </g>
  <g fill="#939393">
    <rect x="59" y="18" width="1" height="1"/>
  </g>
  <g fill="#DADBDC">
    <rect x="60" y="18" width="1" height="1"/>
  </g>
  <g fill="#E3E4E5">
    <rect x="50" y="19" width="1" height="1"/>
  </g>
  <g fill="#989898">
    <rect x="60" y="19" width="1" height="1"/>
  </g>
  <g fill="#B3B4B4">
    <rect x="50" y="20" width="1" height="1"/>
  </g>
  <g fill="#C0C0C1">
    <rect x="61" y="20" width="1" height="1"/>
  </g>
  <g fill="#A0A0A0">
    <rect x="61" y="21" width="1" height="1"/>
  </g>
  <g fill="#99958D">
    <rect x="61" y="53" width="1" height="1"/>
  </g>
  <g fill="#DDC294">
    <rect x="49" y="58" width="1" height="1"/>
  </g>
  <g fill="#D5BE81">
    <rect x="27" y="85" width="1" height="1"/>
  </g>
  <g fill="#D4B966">
    <rect x="42" y="85" width="1" height="1"/>
  </g>
  <g fill="#CBAD6C">
    <rect x="54" y="85" width="1" height="1"/>
  </g>
  <g fill="#DCC79C">
    <rect x="84" y="85" width="1" height="1"/>
  </g>
  <g fill="#C0AD6A">
    <rect x="84" y="90" width="1" height="1"/>
  </g>
  <g fill="#CDB56F">
    <rect x="27" y="91" width="1" height="1"/>
  </g>
  <g fill="#CBB45C">
    <rect x="42" y="91" width="1" height="1"/>
  </g>
  <g fill="#C1A761">
    <rect x="54" y="91" width="1" height="1"/>
  </g>
  <g fill="#CDB67B">
    <rect x="84" y="91" width="1" height="1"/>
  </g>
  <g fill="#EDE0D1">
    <rect x="33" y="124" width="1" height="1"/>
  </g>
  <g fill="#F2A69B">
    <rect x="33" y="140" width="1" height="1"/>
  </g>
  <g fill="#F3C8C2">
    <rect x="78" y="140" width="1" height="1"/>
  </g>
  <g fill="#948F85">
    <rect x="33" y="163" width="1" height="1"/>
  </g>
  <g fill="#8F8471">
    <rect x="33" y="165" width="1" height="1"/>
  </g>
  <g fill="#564D3F">
    <rect x="33" y="168" width="1" height="1"/>
  </g>
  <g fill="#716653">
    <rect x="78" y="168" width="1" height="1"/>
  </g>
  <g fill="#383126">
    <rect x="78" y="169" width="1" height="1"/>
  </g>
  <g fill="#CFC8BB">
    <rect x="32" y="171" width="1" height="1"/>
  </g>
  <g fill="#C49A6B">
    <rect x="83" y="186" width="1" height="1"/>
  </g>
  <g fill="#E4D8CB">
    <rect x="27" y="187" width="1" height="1"/>
  </g>
  <g fill="#8C4614">
    <rect x="83" y="187" width="1" height="1"/>
  </g>
  <g fill="#D2B9A0">
    <rect x="27" y="188" width="1" height="1"/>
  </g>
  <g fill="#E2D4C7">
    <rect x="84" y="188" width="1" height="1"/>
  </g>
  <g fill="#C19A73">
    <rect x="27" y="189" width="1" height="1"/>
  </g>
  <g fill="#D1B89F">
    <rect x="84" y="189" width="1" height="1"/>
  </g>
  <g fill="#B68960">
    <rect x="27" y="190" width="1" height="1"/>
  </g>
  <g fill="#C4A07E">
    <rect x="84" y="190" width="1" height="1"/>
  </g>
  <g fill="#AA7443">
    <rect x="27" y="191" width="1" height="1"/>
  </g>
  <g fill="#995A29">
    <rect x="27" y="192" width="1" height="1"/>
  </g>
  <g fill="#AE7C4F">
    <rect x="84" y="192" width="1" height="1"/>
  </g>
  <g fill="#955422">
    <rect x="27" y="193" width="1" height="1"/>
  </g>
  <g fill="#A26839">
    <rect x="84" y="193" width="1" height="1"/>
  </g>
  <g fill="#93501E">
    <rect x="27" y="194" width="1" height="1"/>
  </g>
  <g fill="#9F6334">
    <rect x="84" y="194" width="1" height="1"/>
  </g>
  <g fill="#8F4B19">
    <rect x="27" y="195" width="1" height="1"/>
  </g>
  <g fill="#9B5D2C">
    <rect x="84" y="195" width="1" height="1"/>
  </g>
  <g fill="#904D1A">
    <rect x="27" y="198" width="1" height="1"/>
  </g>
  <g fill="#9D602F">
    <rect x="84" y="198" width="1" height="1"/>
  </g>
  <g fill="#945220">
    <rect x="27" y="199" width="1" height="1"/>
  </g>
  <g fill="#A36A3B">
    <rect x="84" y="199" width="1" height="1"/>
  </g>
  <g fill="#A66F40">
    <rect x="27" y="200" width="1" height="1"/>
  </g>
  <g fill="#BC926B">
    <rect x="27" y="201" width="1" height="1"/>
  </g>
  <g fill="#CDB197">
    <rect x="84" y="201" width="1" height="1"/>
  </g>
  <g fill="#EBE2D3">
    <rect x="27" y="202" width="1" height="1"/>
  </g>
  <g fill="#DBBB86">
    <rect x="49" y="226" width="1" height="1"/>
  </g>
  <g fill="#DFC9A3">
    <rect x="49" y="227" width="1" height="1"/>
  </g>
  <g fill="#AB9E87">
    <rect x="61" y="230" width="1" height="1"/>
  </g>
  <g fill="#999999">
    <rect x="50" y="265" width="1" height="1"/>
  </g>
  <g fill="#BDBEBE">
    <rect x="50" y="266" width="1" height="1"/>
  </g>
  <g fill="#C9CACB">
    <rect x="61" y="266" width="1" height="1"/>
  </g>
  <g fill="#9C9C9C">
    <rect x="51" y="267" width="1" height="1"/>
  </g>
  <g fill="#A6A6A7">
    <rect x="60" y="267" width="1" height="1"/>
  </g>
  <g fill="#E1E2E3">
    <rect x="51" y="268" width="1" height="1"/>
  </g>
  <g fill="#9E9E9E">
    <rect x="52" y="268" width="1" height="1"/>
  </g>
  <g fill="#C3C3C4">
    <rect x="53" y="269" width="1" height="1"/>
  </g>
  <g fill="#A1A1A1">
    <rect x="54" y="269" width="1" height="1"/>
  </g>
  <g fill="#8F8F90">
    <rect x="55" y="269" width="1" height="1"/>
  </g>
  <g fill="#A4A4A5">
    <rect x="57" y="269" width="1" height="1"/>
  </g>
  <g fill="#C8C9CA">
    <rect x="58" y="269" width="1" height="1"/>
  </g>
</svg>